HIERARCHY
ROOT Hips
{
	OFFSET 0.00 0.00 0.00
	CHANNELS 6 Xposition Yposition Zposition Xrotation Yrotation Zrotation
	JOINT RightUpLeg
	{
		OFFSET -4.47808 0.00000 0.00000
		CHANNELS 3 Xrotation Yrotation Zrotation
		JOINT RightLeg
		{
			OFFSET 0.00000 -16.40577 0.00000
			CHANNELS 3 Xrotation Yrotation Zrotation
			JOINT RightFoot
			{
				OFFSET 0.00000 -14.64414 0.00000
				CHANNELS 3 Xrotation Yrotation Zrotation
				JOINT RightToeBase
				{
					OFFSET 0.00000 -1.50274 5.60831
					CHANNELS 3 Xrotation Yrotation Zrotation
					End Site
					{
						OFFSET 0.00000 0.00000 2.95275
					}
				}
			}
		}
	}
	JOINT LeftUpLeg
	{
		OFFSET 4.47808 0.00000 0.00000
		CHANNELS 3 Xrotation Yrotation Zrotation
		JOINT LeftLeg
		{
			OFFSET 0.00000 -16.40577 0.00000
			CHANNELS 3 Xrotation Yrotation Zrotation
			JOINT LeftFoot
			{
				OFFSET 0.00000 -14.64414 0.00000
				CHANNELS 3 Xrotation Yrotation Zrotation
				JOINT LeftToeBase
				{
					OFFSET 0.00000 -1.50274 5.60831
					CHANNELS 3 Xrotation Yrotation Zrotation
					End Site
					{
						OFFSET 0.00000 0.00000 2.95275
					}
				}
			}
		}
	}
	JOINT Spine
	{
		OFFSET 0.00000 6.06821 0.00000
		CHANNELS 3 Xrotation Yrotation Zrotation
		JOINT RightShoulder
		{
			OFFSET 0.00000 10.01392 0.00000
			CHANNELS 3 Xrotation Yrotation Zrotation
			JOINT RightArm
			{
				OFFSET -7.19022 0.00000 0.00000
				CHANNELS 3 Xrotation Yrotation Zrotation
				JOINT RightForeArm
				{
					OFFSET -10.17747 0.00000 0.00000
					CHANNELS 3 Yrotation Zrotation Xrotation
					JOINT RightHand
					{
						OFFSET -8.39211 0.00000 0.00000
						CHANNELS 3 Xrotation Yrotation Zrotation
						End Site
						{
							OFFSET -3.93700 0.00000 0.00000
						}
						JOINT RightHandThumb1
						{
							OFFSET 0.00000 0.00000 0.00000
							CHANNELS 3 Xrotation Zrotation Yrotation
							End Site
							{
								OFFSET 0.00000 0.00000 3.93700
							}
						}
					}
				}
			}
		}
		JOINT LeftShoulder
		{
			OFFSET 0.00000 10.01392 0.00000
			CHANNELS 3 Xrotation Yrotation Zrotation
			JOINT LeftArm
			{
				OFFSET 7.19022 0.00000 0.00000
				CHANNELS 3 Xrotation Yrotation Zrotation
				JOINT LeftForeArm
				{
					OFFSET 10.17747 0.00000 0.00000
					CHANNELS 3 Yrotation Zrotation Xrotation
					JOINT LeftHand
					{
						OFFSET 8.39211 0.00000 0.00000
						CHANNELS 3 Xrotation Yrotation Zrotation
						End Site
						{
							OFFSET 3.93700 0.00000 0.00000
						}
						JOINT LeftHandThumb1
						{
							OFFSET 0.00000 0.00000 0.00000
							CHANNELS 3 Xrotation Zrotation Yrotation
							End Site
							{
								OFFSET 0.00000 0.00000 3.93700
							}
						}
					}
				}
			}
		}
		JOINT Head
		{
			OFFSET 0.00000 15.77748 0.00000
			CHANNELS 3 Xrotation Yrotation Zrotation
			End Site
			{
				OFFSET 0.00000 4.52755 0.00000
			}
		}
	}
}
MOTION
Frames: 7
Frame Time: 0.008333
 -2.9204 33.1034 -0.3953 9.7457 -2.4438 2.8914 -4.6153 -3.0069 -1.8485 2.5394 0.0000 -0.0000 -13.3839 -4.7923 -0.5853 4.9792 0.0000 -0.0000 -3.5214 4.4267 0.8880 1.9522 0.0000 0.0000 -11.1178 7.5133 -8.1490 8.8376 -0.0000 -0.0000 -11.5331 -1.8423 -0.4940 6.8419 -24.8558 -27.1442 -35.4924 -1.8394 32.5333 11.2219 0.0000 10.3981 -0.8684 6.9659 7.1237 32.8623 0.0000 -24.3270 -4.9610 25.4523 32.2415 -34.7350 7.0423 -29.7994 -4.3103 0.0000 26.2650 0.8762 6.6801 -7.4903 33.1476 -0.0000 26.2537 1.6730 -3.0574 -2.1014
 -2.9180 33.1054 -0.3954 9.6991 -2.3918 2.8596 -4.5269 -3.2083 -1.8335 2.4355 0.0000 -0.0000 -13.2650 -4.6683 -0.4608 5.0208 -0.0000 -0.0000 -3.5665 4.5829 0.9119 2.0961 0.0000 0.0000 -11.1651 7.3130 -8.1258 8.8221 -0.0000 0.0000 -11.4575 -1.8188 -0.5182 6.8636 -25.0071 -27.0748 -35.5055 -1.7950 32.6172 11.1790 0.0000 10.5000 -0.8696 6.8601 7.2418 32.8623 0.0000 -24.3270 -5.0192 25.4275 32.3012 -34.7302 7.1613 -29.7805 -4.4690 0.0000 26.2772 0.8762 6.5794 -7.6026 33.1476 -0.0000 26.2537 1.5592 -2.9412 -1.9940
 -2.9140 33.1060 -0.3971 9.6654 -2.3794 2.8407 -4.4631 -3.3850 -1.8297 2.3428 -0.0000 0.0000 -13.1695 -4.5433 -0.3279 5.1683 0.0000 -0.0000 -3.5960 4.7802 0.9223 2.1958 0.0000 0.0000 -11.1890 7.1245 -8.2024 8.7711 -0.0000 -0.0000 -11.3881 -1.8008 -0.5467 6.9452 -25.1500 -26.9813 -35.5672 -1.7311 32.6849 11.1406 0.0000 10.5518 -0.8767 6.8077 7.3558 32.8623 0.0000 -24.3270 -5.0717 25.4571 32.3583 -34.7231 7.2488 -29.7448 -4.5944 0.0000 26.2937 0.8654 6.3719 -7.7505 33.1476 -0.0000 26.2537 1.4172 -2.7768 -1.8965
 -2.9106 33.1054 -0.3986 9.6357 -2.4043 2.8286 -4.4032 -3.5273 -1.8293 2.2473 -0.0000 -0.0000 -13.0772 -4.4142 -0.1971 5.3042 0.0000 -0.0000 -3.5925 4.9747 0.9338 2.2409 0.0000 -0.0000 -11.2153 6.9354 -8.1770 8.7502 -0.0000 0.0000 -11.3174 -1.7591 -0.5798 6.9793 -25.2332 -26.9246 -35.5693 -1.7245 32.7445 11.1338 0.0000 10.6507 -0.8658 6.7340 7.3440 32.8623 0.0000 -24.3270 -5.1200 25.4981 32.4313 -34.7207 7.3316 -29.7152 -4.6797 0.0000 26.3459 0.8570 6.2772 -7.7906 33.1476 -0.0000 26.2537 1.2504 -2.5818 -1.8075
 -2.9062 33.1045 -0.3996 9.6023 -2.4615 2.8263 -4.3443 -3.6355 -1.8374 2.1590 -0.0000 -0.0000 -13.0063 -4.2997 -0.0724 5.4914 -0.0000 0.0000 -3.5577 5.1916 0.9348 2.2506 0.0000 -0.0000 -11.2584 6.7419 -8.1216 8.8672 0.0000 -0.0000 -11.2383 -1.7366 -0.6109 7.0518 -25.2707 -26.8306 -35.5676 -1.6756 32.7466 11.1250 0.0000 10.6259 -0.8704 6.7527 7.3624 32.8623 0.0000 -24.3270 -5.1213 25.6331 32.4726 -34.8019 7.3806 -29.6816 -4.7287 0.0000 26.4671 0.8471 6.2097 -7.7838 33.1476 -0.0000 26.2537 1.0786 -2.3466 -1.7359
 -2.9029 33.1032 -0.4002 9.5853 -2.5454 2.8295 -4.3014 -3.6969 -1.8465 2.0698 0.0000 -0.0000 -12.9294 -4.2038 0.0785 5.5525 -0.0000 0.0000 -3.5136 5.3975 0.9396 2.2138 0.0000 0.0000 -11.2319 6.5872 -8.2444 8.7890 -0.0000 0.0000 -11.1775 -1.6877 -0.6426 7.1111 -25.3279 -26.7422 -35.5609 -1.6070 32.7627 11.1256 0.0000 10.5996 -0.8939 6.8796 7.4215 32.8623 0.0000 -24.3270 -5.1712 25.7296 32.5027 -34.7855 7.3666 -29.5987 -4.7404 0.0000 26.5700 0.8236 6.1293 -7.6678 33.1476 -0.0000 26.2537 0.9055 -2.1397 -1.6550
 -2.9012 33.1014 -0.4010 9.5826 -2.6430 2.8283 -4.2654 -3.7509 -1.8481 1.9653 -0.0000 0.0000 -12.8617 -4.0757 0.1809 5.6693 -0.0000 0.0000 -3.4688 5.5911 0.9505 2.1576 -0.0000 -0.0000 -11.2297 6.4461 -8.2694 8.8138 0.0000 -0.0000 -11.1442 -1.6043 -0.6641 7.1020 -25.3650 -26.7104 -35.4835 -1.5668 32.7903 11.1711 0.0000 10.5678 -0.8912 6.9073 7.3703 32.8623 0.0000 -24.3270 -5.2278 25.7693 32.5428 -34.7605 7.3862 -29.4980 -4.7550 0.0000 26.6754 0.8038 5.9857 -7.6629 33.1476 -0.0000 26.2537 0.7438 -1.9013 -1.5723
